<?xml version="1.0" standalone="no"?>
<!DOCTYPE svg PUBLIC "-//W3C//DTD SVG 20010904//EN"
 "http://www.w3.org/TR/2001/REC-SVG-20010904/DTD/svg10.dtd">
<svg version="1.0" xmlns="http://www.w3.org/2000/svg"
 width="700.000000pt" height="700.000000pt" viewBox="0 0 700.000000 700.000000"
 preserveAspectRatio="xMidYMid meet">
<metadata>
Created by potrace 1.11, written by Peter Selinger 2001-2013
</metadata>
<g transform="translate(0.000000,700.000000) scale(0.100000,-0.100000)"
fill="#000000" stroke="none">
<path d="M2300 6978 c-208 -42 -410 -173 -539 -347 -126 -169 -183 -354 -177
-566 5 -136 10 -168 46 -275 40 -120 117 -244 212 -340 53 -53 106 -100 114
-100 3 0 20 -11 37 -24 31 -24 172 -95 199 -100 7 -2 20 -6 28 -9 8 -3 27 -8
41 -11 l26 -6 1 -247 c0 -137 -2 -255 -4 -264 -3 -11 -25 -20 -65 -28 -74 -15
-242 -82 -318 -126 -115 -68 -226 -162 -317 -270 -336 -399 -360 -994 -56
-1425 66 -94 215 -240 305 -298 119 -77 282 -150 372 -167 17 -2 44 -9 60 -13
l30 -8 0 -274 0 -273 -80 -27 c-303 -101 -522 -331 -606 -636 -33 -122 -35
-319 -4 -442 70 -276 238 -484 490 -608 124 -61 224 -85 366 -89 258 -7 482
78 663 253 156 151 250 343 272 557 3 33 7 69 9 80 2 20 -11 159 -20 199 -55
269 -239 509 -483 631 -68 34 -181 75 -206 75 -9 0 -13 273 -7 533 1 17 6 27
17 27 40 0 209 57 299 100 124 60 216 126 321 231 l82 81 98 -71 c55 -39 123
-87 153 -108 29 -21 82 -58 116 -83 l62 -45 -14 -55 c-22 -91 -25 -262 -7
-365 54 -294 265 -558 534 -670 141 -59 200 -70 365 -69 121 0 165 5 227 22
406 112 686 479 680 892 -6 409 -282 765 -674 869 -40 11 -95 23 -123 26 -56
7 -212 8 -223 1 -4 -3 -29 -7 -55 -10 -141 -17 -327 -111 -458 -233 l-64 -61
-160 114 c-88 63 -184 131 -213 152 -41 29 -51 41 -47 57 49 167 58 224 59
360 1 156 -5 207 -39 330 l-23 85 119 85 c65 46 161 114 212 149 l94 65 59
-56 c244 -228 593 -307 904 -206 149 48 288 138 393 254 62 69 64 71 89 110
132 206 178 437 133 675 -33 179 -117 337 -249 470 -48 49 -140 124 -151 124
-3 0 -22 11 -43 25 -69 46 -215 97 -316 111 -380 54 -747 -129 -934 -466 -31
-55 -77 -169 -86 -212 -3 -13 -8 -34 -11 -48 -16 -61 -13 -276 4 -356 l17 -80
-135 -95 c-74 -52 -169 -118 -212 -148 l-78 -53 -84 83 c-165 166 -387 287
-597 326 l-45 9 -3 262 c-2 231 -1 262 13 262 49 0 216 73 310 135 56 37 177
152 216 205 230 315 241 731 29 1049 -135 202 -343 344 -575 393 -93 19 -271
18 -375 -4z m326 -471 c140 -51 240 -151 286 -288 20 -60 22 -192 3 -252 -37
-123 -127 -226 -243 -280 -55 -25 -82 -32 -155 -35 -141 -7 -238 30 -336 127
-240 239 -129 648 200 735 65 17 187 14 245 -7z m2218 -1274 c159 -51 264
-171 302 -348 11 -50 3 -148 -16 -205 -109 -325 -515 -410 -747 -158 -107 117
-141 297 -84 447 82 218 323 334 545 264z m-2229 -1114 c233 -42 427 -238 481
-484 12 -56 12 -190 0 -244 -51 -229 -240 -423 -463 -475 -71 -16 -202 -19
-265 -5 -64 15 -167 58 -218 92 -73 48 -164 151 -204 230 -49 97 -70 184 -69
287 2 170 60 308 183 430 154 154 333 208 555 169z m2222 -1488 c86 -27 162
-79 216 -145 159 -196 116 -493 -93 -638 -198 -137 -474 -86 -610 115 -121
177 -101 402 48 553 116 118 288 163 439 115z m-2212 -1299 c86 -26 191 -106
236 -179 61 -98 86 -243 59 -345 -55 -207 -260 -355 -464 -334 -231 24 -393
195 -402 422 -4 131 34 231 125 324 79 80 164 119 291 133 30 3 114 -8 155
-21z"/>
</g>
</svg>
